<svg xmlns="http://www.w3.org/2000/svg" version="1.1" xmlns:xlink="http://www.w3.org/1999/xlink" xmlns:svgjs="http://svgjs.com/svgjs" width="512" height="512" x="0" y="0" viewBox="0 0 512 512" style="enable-background:new 0 0 512 512" xml:space="preserve" class=""><g><path d="M320 53.333H192c-76.374 0-138.667 62.292-138.667 138.667v128c0 76.375 62.293 138.667 138.667 138.667h128c76.374 0 138.667-62.292 138.667-138.667V192c0-76.375-62.293-138.667-138.667-138.667zm15.147 251.521a21.5 21.5 0 0 1 0 30.292 21.635 21.635 0 0 1-30.294 0L256 286.292l-48.853 48.854a21.635 21.635 0 0 1-30.294 0 21.5 21.5 0 0 1 0-30.292L225.707 256l-48.854-48.854a21.42 21.42 0 1 1 30.294-30.292L256 225.708l48.853-48.854a21.42 21.42 0 0 1 30.294 30.292L286.293 256z" data-name="times-square-Filled" fill="#eaeaea" data-original="#000000" opacity="1" class=""></path></g></svg>