<?xml version="1.0" encoding="UTF-8" standalone="no"?>
<!DOCTYPE svg PUBLIC "-//W3C//DTD SVG 1.1//EN" "http://www.w3.org/Graphics/SVG/1.1/DTD/svg11.dtd">
<svg width="100%" height="100%" viewBox="0 0 400 250" version="1.1" xmlns="http://www.w3.org/2000/svg" xmlns:xlink="http://www.w3.org/1999/xlink" xml:space="preserve" xmlns:serif="http://www.serif.com/" style="fill-rule:evenodd;clip-rule:evenodd;stroke-linecap:round;stroke-linejoin:round;stroke-miterlimit:1.5;">
    <g transform="matrix(2.19808,0,0,2.19808,-66.7459,-214.769)">
        <g>
            <g transform="matrix(1,0,0,1,54.923,149.888)">
                <text x="0px" y="0px" style="font-family:'Futura-Bold', 'Futura', sans-serif;font-weight:700;font-size:23.657px;fill:rgb(229,229,229);">w</text>
            </g>
            <g transform="matrix(1,0,0,1,78.556,149.888)">
                <text x="0px" y="0px" style="font-family:'Futura-Bold', 'Futura', sans-serif;font-weight:700;font-size:23.657px;fill:rgb(229,229,229);">ork</text>
            </g>
        </g>
    </g>
    <g transform="matrix(1,0,0,1,-7.00852,-29.1401)">
        <g transform="matrix(1,0,0,1,229.277,143.913)">
            <text x="0px" y="0px" style="font-family:'Futura-Bold', 'Futura', sans-serif;font-weight:700;font-size:54px;fill:rgb(229,229,229);">ﬁnd</text>
        </g>
        <g transform="matrix(1,0,0,1,339.869,143.913)">
            <text x="0px" y="0px" style="font-family:'Futura-Bold', 'Futura', sans-serif;font-weight:700;font-size:54px;fill:rgb(229,229,229);">y</text>
        </g>
    </g>
    <g transform="matrix(0.690027,0,0,0.690027,12.2356,-13.9254)">
        <g id="M4.svg">
            <g>
                <g transform="matrix(0.674823,0,0,0.753922,-145.312,-192.306)">
                    <path d="M465.336,308.984C565.867,308.984 647.486,381.134 647.486,470.002C647.486,558.87 565.867,631.019 465.336,631.019C364.805,631.019 283.187,558.87 283.187,470.002C283.187,381.134 364.805,308.984 465.336,308.984ZM465.336,308.984C565.867,308.984 647.486,381.134 647.486,470.002C647.486,558.87 565.867,631.019 465.336,631.019C364.805,631.019 283.187,558.87 283.187,470.002C283.187,381.134 364.805,308.984 465.336,308.984Z" style="fill:none;stroke:rgb(229,229,229);stroke-width:33.54px;"/>
                </g>
                <g transform="matrix(0.633749,0,0,0.611971,-137.285,-97.6855)">
                    <path d="M556.28,610.307C556.28,610.307 605.457,643.43 610.967,639.598C616.477,635.767 666.272,590.66 668.26,583.193C670.247,575.726 650.209,535.925 650.209,535.925" style="fill:none;stroke:rgb(229,229,229);stroke-width:38.53px;"/>
                </g>
                <g transform="matrix(0.671222,0,0,0.671222,-142.24,-131.217)">
                    <path d="M595.962,633.805L682.834,730.484C682.834,730.484 692.407,737.715 699.847,738.047C707.286,738.378 715.843,738.506 722.982,730.808C730.121,723.109 729.207,707.871 726.463,699.64C723.719,691.409 637.258,597.899 638.225,597.065" style="fill:none;stroke:rgb(229,229,229);stroke-width:35.76px;"/>
                </g>
            </g>
        </g>
    </g>
</svg>
